<?xml version="1.0" encoding="UTF-8" standalone="no"?>
<!-- Created with Inkscape (http://www.inkscape.org/) -->

<svg
   width="32"
   height="32"
   viewBox="0 0 8.4666665 8.4666666"
   version="1.1"
   id="svg1"
   xml:space="preserve"
   inkscape:export-filename="templeIcon.png"
   inkscape:export-xdpi="96"
   inkscape:export-ydpi="96"
   inkscape:version="1.4.2 (f4327f4, 2025-05-13)"
   sodipodi:docname="temple icon.svg"
   xmlns:inkscape="http://www.inkscape.org/namespaces/inkscape"
   xmlns:sodipodi="http://sodipodi.sourceforge.net/DTD/sodipodi-0.dtd"
   xmlns="http://www.w3.org/2000/svg"
   xmlns:svg="http://www.w3.org/2000/svg"><sodipodi:namedview
     id="namedview1"
     pagecolor="#ffffff"
     bordercolor="#000000"
     borderopacity="0.25"
     inkscape:showpageshadow="2"
     inkscape:pageopacity="0.0"
     inkscape:pagecheckerboard="0"
     inkscape:deskcolor="#d1d1d1"
     inkscape:document-units="px"
     inkscape:zoom="12.443434"
     inkscape:cx="13.059096"
     inkscape:cy="31.462375"
     inkscape:window-width="1920"
     inkscape:window-height="1111"
     inkscape:window-x="-9"
     inkscape:window-y="-9"
     inkscape:window-maximized="1"
     inkscape:current-layer="layer1" /><defs
     id="defs1" /><g
     inkscape:label="Layer 1"
     inkscape:groupmode="layer"
     id="layer1"><path
       style="fill:#000000;stroke-width:0.0940974"
       d="M 2.8514746,5.6188478 V 2.7727744 L 3.013302,2.5930969 c 0.089005,-0.098823 0.1622811,-0.1877096 0.1628356,-0.1975257 0.00533,-0.094535 0.3921693,-2.37370053 0.4050632,-2.38659379 0.00944,-0.009445005 0.022517,-0.0118225 0.029051,-0.005286 0.00654,0.006536 0.1006418,0.5518311 0.2091251,1.21176989 L 4.0166219,2.4153498 4.1684955,2.5944417 4.320369,2.7735338 V 5.6201007 8.4666666 L 4.0651795,8.4595744 3.80999,8.4524851 3.8032432,7.9607774 3.7964963,7.46907 H 3.5854032 3.3743092 V 7.9670007 8.4649326 H 3.1128956 2.8514822 Z M 3.7975425,6.1868902 V 5.2532711 H 3.5983703 3.3991982 V 6.1868902 7.1205104 H 3.5983703 3.7975425 Z M 3.7964794,4.027118 3.7954162,3.2242052 3.6955803,3.1121704 3.5957447,3.0001366 3.4974698,3.1091493 3.3991949,3.2181609 v 0.8059344 0.805935 H 3.598367 3.797539 Z M 4.7804148,8.4349463 C 4.773651,8.4172003 4.7709985,7.3410745 4.774532,6.0435561 L 4.780942,3.6844317 4.9489939,3.7971701 5.1170455,3.9099086 V 4.4072317 4.9045538 L 5.8388783,5.265637 c 0.3970077,0.1985953 0.7331112,0.3610822 0.7468956,0.3610822 0.013784,0 0.025062,-0.04471 0.025062,-0.099357 0,-0.085434 0.011812,-0.1071001 0.084289,-0.1546101 0.070233,-0.046041 0.086446,-0.074102 0.09723,-0.1682807 0.00711,-0.062165 0.050277,-0.4855411 0.095914,-0.9408366 0.045634,-0.4552944 0.089179,-0.8278081 0.096763,-0.8278081 0.00759,0 0.071553,0.4385985 0.1421534,0.9746638 l 0.1283654,0.9746639 0.075988,0.078399 c 0.072969,0.075285 0.075986,0.087059 0.075986,0.2965012 V 5.9781585 L 7.6440421,6.087933 7.8805589,6.197707 V 7.3313145 8.4649223 H 7.6689475 7.4573265 V 7.6296519 c 0,-0.7000166 -0.00616,-0.8471639 -0.037984,-0.9087222 -0.043267,-0.083666 -0.1094775,-0.094555 -0.1697776,-0.027925 -0.03667,0.040521 -0.041205,0.1404513 -0.041205,0.9087238 V 8.4649223 H 6.8722638 6.536161 V 7.4499439 6.4349657 L 6.4730224,6.3420482 C 6.4019765,6.2374983 6.3854979,6.2325127 6.2987685,6.2893409 l -0.061365,0.040206 v 1.0676873 1.067687 H 5.8515071 5.4656101 V 7.2285064 5.9920922 L 5.4023199,5.8840941 C 5.3306062,5.761725 5.2762672,5.7483724 5.1963175,5.8334752 5.1426663,5.8905842 5.142383,5.8968658 5.1359612,7.1716626 l -0.00645,1.2808095 -0.1683936,0.00737 c -0.1205079,0.00527 -0.1718972,-0.00181 -0.1807009,-0.0249 z M 0.60248587,8.4234345 c -0.00913,-0.00912 -0.016502,-0.3984487 -0.01638,-0.8651549 l 2.158e-4,-0.8485561 0.1531806,-0.099586 c 0.08425,-0.054771 0.1625755,-0.1033204 0.1740578,-0.1078849 0.011481,-0.00454 0.020878,0.4295699 0.020878,0.9647415 v 0.9730377 h -0.1576774 c -0.086723,0 -0.1651469,-0.00747 -0.1742759,-0.016598 z m 0.73048983,-1.5456586 1.849e-4,-1.5622565 0.09317,-0.055052 c 0.051244,-0.03028 0.1295814,-0.078994 0.1740838,-0.1082552 l 0.080914,-0.053204 V 6.7695183 8.4400307 H 1.507058 1.3327823 Z M 2.0724003,8.4244528 C 2.0627114,8.4147591 2.0547829,7.4001634 2.0547829,6.1697851 V 3.93273 L 2.1688411,3.8523294 C 2.2315732,3.8081106 2.3156557,3.7511865 2.3556912,3.7258349 l 0.072792,-0.046094 -0.00635,2.3739174 -0.00635,2.3739176 -0.1628824,0.00725 c -0.089586,0.00398 -0.1708101,-6.145e-4 -0.1805,-0.010372 z"
       id="path1" /></g></svg>
